<?xml version="1.0" encoding="utf-8"?>
<!-- Generator: Adobe Illustrator 27.9.0, SVG Export Plug-In . SVG Version: 6.00 Build 0)  -->
<svg version="1.1" id="Слой_1" xmlns="http://www.w3.org/2000/svg" xmlns:xlink="http://www.w3.org/1999/xlink" x="0px" y="0px"
	 viewBox="0 0 223.2 56" style="enable-background:new 0 0 223.2 56;" xml:space="preserve">
<style type="text/css">
	.st0{fill:#FFFFFF;}
	.st1{fill:none;}
</style>
<g>
	<rect id="пазделиель" x="65.42" y="10.25" class="st0" width="1.19" height="35.5"/>
	<g id="АЛьЯНС">
		<path class="st0" d="M87.09,15.24h2.31c0.38,0,0.72,0.24,0.84,0.6l8.23,23.69h-3.36l-4.35-13.56c-0.9-2.72-1.7-5.38-2.5-8.18
			h-0.15c-0.77,2.82-1.57,5.47-2.47,8.18l-4.4,13.56h-3.23l8.23-23.69C86.37,15.48,86.71,15.24,87.09,15.24z M82.45,29.66h11.49
			v2.47H82.45V29.66z"/>
		<path class="st0" d="M99.12,39.56l0.64-2.85c0,0,0.64,0.2,1.04,0.2c1.28,0,2.23-0.75,3.39-6.51c0.84-4.2,1.55-8.24,2.32-12.54
			c0.28-1.56,1.64-2.71,3.22-2.71l9.39,0v24.29h-3.09V17.77h-5.11c-0.89,0-1.65,0.64-1.8,1.51c-0.69,3.89-1.32,7.65-2.03,11.46
			c-1.39,7.43-2.98,9.14-5.89,9.14C100.42,39.89,99.79,39.81,99.12,39.56z"/>
		<path class="st0" d="M124.2,15.24h2.31v9.95h6.13c5.34,0,7.25,2.01,7.25,6.87c0,5.18-1.79,7.46-7.21,7.46h-8.48V15.24z
			 M132.29,37.02c4.1,0,5-1.36,5.01-4.89c0.01-2.81-0.88-4.43-5.11-4.43h-5.74v9.32H132.29z"/>
		<path class="st0" d="M150.42,27.09c0.65-0.22,3.65,0.97,2.37,1.47c-6.97,2.7-6.89,10.97-6.89,10.97h-2.97
			C142.92,39.52,143.75,29.38,150.42,27.09z M156.78,29.8h-4.98c-4.48-0.14-8.05-2.87-8.05-7.72c0-5.06,3.55-6.84,8.5-6.84h7.08
			v24.29h-2.56L156.78,29.8z M156.76,26.75v-9.01h-4.07c-3.78,0-5.86,1.13-5.86,4.33c0,3.15,2.08,4.68,5.86,4.68H156.76z"/>
		<path class="st0" d="M165.64,15.24h3.09v10.17h11.29V15.24h3.09v24.29h-3.09V28.11h-11.29v11.42h-3.09V15.24z"/>
		<path class="st0" d="M186.43,27.4c0-7.83,4.61-12.61,10.78-12.61c2.95,0,5.26,1.43,6.68,3l-1.69,2.01
			c-1.28-1.36-2.88-2.29-4.93-2.29c-4.59,0-7.64,3.76-7.64,9.81c0,6.1,2.91,9.93,7.52,9.93c2.32,0,4.08-1.01,5.63-2.73l1.69,1.94
			c-1.92,2.23-4.3,3.51-7.45,3.51C190.97,39.97,186.43,35.29,186.43,27.4z"/>
	</g>
	<g id="А_00000093173711703014948050000017761185246053029261_">
		<path id="подложка_А" class="st0" d="M50.16,45.75H22.74c-2.21,0-4-1.79-4-4V14.33c0-2.21,1.79-4,4-4h27.42
			c2.21,0,4,1.79,4,4v27.42C54.16,43.96,52.37,45.75,50.16,45.75z"/>
		<rect x="26.28" y="17.71" class="st1" width="17.18" height="24.99"/>
		<g>
			<path id="А" d="M42.11,36.46l-5.89-18.54l-6.21,18.35l-0.91,0.19v0.98h3.92v-0.98l-1.74-0.34l1.38-4.36h5.3l1.4,4.68l-1.52,0.18
				v0.82h5.62v-0.82L42.11,36.46z M33.07,30.46l2.31-7.31l2.19,7.31H33.07z"/>
		</g>
	</g>
</g>
</svg>
