<svg width="410" height="34" viewBox="0 0 410 34" fill="none" xmlns="http://www.w3.org/2000/svg">
    <path d="M17.1852 15.9L12.8652 3.94L8.58515 15.9H17.1852ZM10.7852 0.379998H14.9852L24.8652 26.5H20.9852L18.2252 18.74H7.50515L4.78515 26.5H0.90515L10.7852 0.379998ZM26.7358 26.5L34.4958 7.46H38.7358L46.4958 26.5H42.6558L36.6158 10.98L30.5358 26.5H26.7358ZM51.9655 23.66H58.3255C59.6321 23.66 60.6321 23.3533 61.3255 22.74C62.0455 22.1 62.4055 21.3533 62.4055 20.5C62.4055 19.6467 62.0721 18.9267 61.4055 18.34C60.6588 17.6733 59.6321 17.34 58.3255 17.34H51.9655V23.66ZM51.9655 14.5H58.3255C60.7521 14.5 62.6721 15.1267 64.0855 16.38C65.3655 17.5 66.0055 18.8733 66.0055 20.5C66.0055 22.1267 65.3788 23.5 64.1255 24.62C62.7121 25.8733 60.7788 26.5 58.3255 26.5H48.4455V7.46H51.9655V14.5ZM86.373 7.46V26.5H82.853V19.46H78.453L73.173 26.5H68.733L74.293 19.22C72.5863 18.9533 71.2263 18.2733 70.213 17.18C69.2263 16.06 68.733 14.82 68.733 13.46C68.733 11.8333 69.3596 10.46 70.613 9.34C72.0263 8.08667 73.9863 7.46 76.493 7.46H86.373ZM82.853 10.26H76.493C75.1596 10.26 74.1196 10.58 73.373 11.22C72.6263 11.86 72.253 12.6067 72.253 13.46C72.253 14.3133 72.613 15.06 73.333 15.7C74.0796 16.3133 75.133 16.62 76.493 16.62H82.853V10.26ZM104.662 26.5V18.02H93.3823V26.5H89.8623V7.46H93.3823V15.22H104.662V7.46H108.182V26.5H104.662ZM125.972 20.86H129.612C129.079 22.8867 127.932 24.4733 126.172 25.62C124.519 26.6867 122.585 27.22 120.372 27.22C117.199 27.22 114.679 26.1533 112.812 24.02C111.132 22.1 110.292 19.7533 110.292 16.98C110.292 14.2067 111.132 11.86 112.812 9.94C114.679 7.80667 117.199 6.74 120.372 6.74C122.639 6.74 124.599 7.28667 126.252 8.38C127.932 9.44667 129.052 11.02 129.612 13.1H125.972C125.492 12.0067 124.785 11.1533 123.852 10.54C122.919 9.9 121.759 9.58 120.372 9.58C118.372 9.58 116.785 10.3533 115.612 11.9C114.572 13.26 114.052 14.9533 114.052 16.98C114.052 18.98 114.572 20.6733 115.612 22.06C116.785 23.6067 118.372 24.38 120.372 24.38C121.732 24.38 122.865 24.0733 123.772 23.46C124.705 22.8467 125.439 21.98 125.972 20.86ZM204.778 0.379998L213.578 22.78L222.418 0.379998H226.658V26.5H223.098V14.5L223.818 6.06L215.698 26.5H211.458L203.378 6.06L204.058 14.5V26.5H200.538V0.379998H204.778ZM247.971 16.98C247.971 14.8733 247.451 13.1533 246.411 11.82C245.264 10.3267 243.664 9.58 241.611 9.58C239.584 9.58 237.998 10.3267 236.851 11.82C235.811 13.18 235.291 14.9 235.291 16.98C235.291 19.06 235.811 20.78 236.851 22.14C237.998 23.6333 239.584 24.38 241.611 24.38C243.638 24.38 245.224 23.6333 246.371 22.14C247.438 20.7533 247.971 19.0333 247.971 16.98ZM241.611 6.74C244.278 6.74 246.544 7.60667 248.411 9.34C250.464 11.2333 251.491 13.78 251.491 16.98C251.491 20.1533 250.464 22.7 248.411 24.62C246.544 26.3533 244.278 27.22 241.611 27.22C238.944 27.22 236.678 26.3533 234.811 24.62C232.758 22.7267 231.731 20.18 231.731 16.98C231.731 13.78 232.758 11.2333 234.811 9.34C236.678 7.60667 238.944 6.74 241.611 6.74ZM269.339 7.46H272.859V25.78C272.859 27.8333 272.193 29.5667 270.859 30.98C269.259 32.6867 266.979 33.54 264.019 33.54C261.193 33.54 258.979 32.8067 257.379 31.34C256.126 30.1667 255.406 28.7933 255.219 27.22H258.739C258.873 28.2867 259.433 29.14 260.419 29.78C261.406 30.42 262.513 30.74 263.739 30.74C265.233 30.74 266.499 30.34 267.539 29.54C268.739 28.6067 269.339 27.3533 269.339 25.78V22.26C268.699 23.0867 267.819 23.7267 266.699 24.18C265.606 24.6333 264.433 24.86 263.179 24.86C260.859 24.86 258.899 24.1533 257.299 22.74C255.433 21.0867 254.499 18.8067 254.499 15.9C254.499 13.0467 255.406 10.8333 257.219 9.26C258.819 7.87333 260.779 7.18 263.099 7.18C264.353 7.18 265.539 7.40667 266.659 7.86C267.806 8.28667 268.699 8.87333 269.339 9.62V7.46ZM263.699 9.58C261.779 9.58 260.299 10.3267 259.259 11.82C258.433 12.9933 258.019 14.3533 258.019 15.9C258.019 17.42 258.433 18.78 259.259 19.98C260.299 21.5 261.779 22.26 263.699 22.26C265.593 22.26 267.059 21.5133 268.099 20.02C268.926 18.82 269.339 17.4467 269.339 15.9C269.339 14.38 268.926 13.02 268.099 11.82C267.059 10.3267 265.593 9.58 263.699 9.58ZM277.949 30.74H280.069C280.975 30.74 281.775 30.4067 282.469 29.74C283.162 29.0733 283.509 28.2467 283.509 27.26C283.509 27.1 283.482 26.8867 283.429 26.62C283.375 26.3533 283.309 26.0733 283.229 25.78L275.829 7.46H279.589L285.709 22.7L291.869 7.46H295.589L287.349 27.9C286.389 30.1933 285.455 31.7 284.549 32.42C283.642 33.1667 282.149 33.54 280.069 33.54H277.949V30.74ZM297.308 26.5L305.068 7.46H309.308L317.068 26.5H313.228L307.188 10.98L301.108 26.5H297.308ZM336.937 26.5H333.417V22.98C332.937 24.2067 332.017 25.18 330.657 25.9C329.324 26.62 327.871 26.98 326.297 26.98C324.191 26.98 322.431 26.38 321.017 25.18C319.391 23.82 318.577 21.9133 318.577 19.46V7.46H322.097V18.74C322.097 20.58 322.684 22.0333 323.857 23.1C324.924 24.0867 326.231 24.58 327.777 24.58C329.324 24.58 330.617 24.1 331.657 23.14C332.831 22.0733 333.417 20.6067 333.417 18.74V7.46H336.937V26.5ZM342.627 21.58H346.827V26.5H342.627V21.58ZM353.629 0.379998H364.229C367.056 0.379998 369.296 1.18 370.949 2.78C372.442 4.24666 373.189 6.03333 373.189 8.14C373.189 10.2467 372.456 12.02 370.989 13.46C369.336 15.0867 367.082 15.9 364.229 15.9H357.149V26.5H353.629V0.379998ZM357.149 3.94V12.38H364.229C365.882 12.38 367.176 11.9667 368.109 11.14C369.042 10.2867 369.509 9.28667 369.509 8.14C369.509 7.02 369.069 6.06 368.189 5.26C367.202 4.38 365.882 3.94 364.229 3.94H357.149ZM395.779 26.5H392.259V21.58H388.019C385.086 21.58 382.739 20.6067 380.979 18.66C379.379 16.9 378.579 14.7667 378.579 12.26C378.579 9.64667 379.419 7.42 381.099 5.58C382.993 3.52667 385.539 2.5 388.739 2.5H392.259V0.379998H395.779V2.5H399.299C402.499 2.5 405.033 3.52667 406.899 5.58C408.553 7.39333 409.379 9.62 409.379 12.26C409.379 14.7667 408.593 16.9 407.019 18.66C405.286 20.6067 402.953 21.58 400.019 21.58H395.779V26.5ZM392.259 6.06H388.739C386.739 6.06 385.153 6.67333 383.979 7.9C382.913 9.02 382.379 10.3933 382.379 12.02C382.379 13.6733 382.899 15.0467 383.939 16.14C385.113 17.3933 386.713 18.02 388.739 18.02H392.259V6.06ZM395.779 6.06V18.02H399.299C401.299 18.02 402.886 17.3933 404.059 16.14C405.126 14.9933 405.659 13.62 405.659 12.02C405.659 10.3933 405.139 9.03333 404.099 7.94C402.926 6.68667 401.326 6.06 399.299 6.06H395.779Z" fill="white"/>
    <path d="M132.63 0.379998H153.79V26.5H150.27V3.94H136.15V26.5H132.63V0.379998ZM157.34 33.54V7.46H160.86V9.94C161.474 9.00667 162.34 8.27333 163.46 7.74C164.607 7.20667 165.807 6.94 167.06 6.94C169.38 6.94 171.327 7.75333 172.9 9.38C174.74 11.2733 175.66 13.9267 175.66 17.34C175.66 20.5133 174.767 22.9667 172.98 24.7C171.407 26.22 169.474 26.98 167.18 26.98C165.9 26.98 164.687 26.7267 163.54 26.22C162.394 25.6867 161.5 24.9533 160.86 24.02V33.54H157.34ZM166.5 24.38C168.234 24.38 169.634 23.6067 170.7 22.06C171.66 20.6467 172.14 18.9533 172.14 16.98C172.14 14.98 171.674 13.2867 170.74 11.9C169.7 10.3533 168.287 9.58 166.5 9.58C164.58 9.58 163.114 10.42 162.1 12.1C161.274 13.46 160.86 15.0867 160.86 16.98C160.86 18.9 161.26 20.5267 162.06 21.86C163.074 23.54 164.554 24.38 166.5 24.38ZM194.21 16.98C194.21 14.8733 193.69 13.1533 192.65 11.82C191.503 10.3267 189.903 9.58 187.85 9.58C185.823 9.58 184.237 10.3267 183.09 11.82C182.05 13.18 181.53 14.9 181.53 16.98C181.53 19.06 182.05 20.78 183.09 22.14C184.237 23.6333 185.823 24.38 187.85 24.38C189.877 24.38 191.463 23.6333 192.61 22.14C193.677 20.7533 194.21 19.0333 194.21 16.98ZM187.85 6.74C190.517 6.74 192.783 7.60667 194.65 9.34C196.703 11.2333 197.73 13.78 197.73 16.98C197.73 20.1533 196.703 22.7 194.65 24.62C192.783 26.3533 190.517 27.22 187.85 27.22C185.183 27.22 182.917 26.3533 181.05 24.62C178.997 22.7267 177.97 20.18 177.97 16.98C177.97 13.78 178.997 11.2333 181.05 9.34C182.917 7.60667 185.183 6.74 187.85 6.74Z" fill="#3A5199"/>
</svg>
