<svg id="Icons" xmlns="http://www.w3.org/2000/svg" viewBox="0 0 215 215"><defs><style>.cls-1{fill:#fff;}</style></defs><g id="VK"><path id="Background" class="cls-1" d="M0,103.2c0-48.65,0-73,15.11-88.09S54.55,0,103.2,0h8.6c48.65,0,73,0,88.09,15.11S215,54.55,215,103.2v8.6c0,48.65,0,73-15.11,88.09S160.45,215,111.8,215h-8.6c-48.65,0-73,0-88.09-15.11S0,160.45,0,111.8Z"/><path id="VK-2" data-name="VK" d="M112,151c-45.86,0-72-31.44-73.1-83.75h23c.75,38.4,17.69,54.66,31.1,58v-58h21.63v33.12c13.24-1.43,27.16-16.52,31.85-33.12h21.63c-3.6,20.46-18.69,35.55-29.42,41.75,10.73,5,27.91,18.19,34.45,42H149.29C144.18,135,131.44,122.7,114.59,121V151Z"/></g></svg>